# xmcd
#
# Track frame offsets:
#	182
#	10865
#	25750
#	37837
#	51937
#	64652
#	76075
#	92337
#	108590
#	121070
#	136142
#	149255
#	166107
#	183772
#	207827
#	223847
#	238172
#	250482
#	263402
#	274287
#	289667
#	303835
#	317807
#
# Disc length: 4424 seconds
#
# Revision: 3
# Processed by: cddbd v1.5.2PL0 Copyright (c) Steve Scherf et al.
# Submitted via: EasyCDDAExtractor 15.3.0.1
#
DISCID=36114617
DTITLE=Cher - 3614 Jackson Highway
DYEAR=1969
DGENRE=Pop
TTITLE0=For What It's Worth
TTITLE1=(Just Enough To Keep Me) Hangin' On
TTITLE2=(Sittin' On) The Dock Of The Bay
TTITLE3=Tonight I'll Be Staying Here With You
TTITLE4=I Threw It All Away
TTITLE5=I Walk On Guilded Splinters
TTITLE6=Lay Baby Lay
TTITLE7=Please Don't Tell Me
TTITLE8=Cry Like A Baby
TTITLE9=Do Right Woman, Do Right Man
TTITLE10=Save The Children
TTITLE11=Easy To Be Hard
TTITLE12=I Believe
TTITLE13=Danny Boy
TTITLE14=Momma Look Sharp
TTITLE15=It Gets Me Where I Want To Go
TTITLE16=You've Made Me So Very Happy
TTITLE17=Yours Until Tomorrow
TTITLE18=The Thought Of Loving You
TTITLE19=The First Time
TTITLE20=Chastity's Song (Band Of Thieves)
TTITLE21=Chastity's Song (Band Of Thieves) (Stereo Album Version)
TTITLE22=Superstar
EXTD=YEAR: 1969
EXTT0=
EXTT1=
EXTT2=
EXTT3=
EXTT4=
EXTT5=
EXTT6=
EXTT7=
EXTT8=
EXTT9=
EXTT10=
EXTT11=
EXTT12=
EXTT13=
EXTT14=
EXTT15=
EXTT16=
EXTT17=
EXTT18=
EXTT19=
EXTT20=
EXTT21=
EXTT22=
PLAYORDER=
